<mxfile host="app.diagrams.net" modified="2021-11-11T04:35:43.971Z" agent="5.0 (Macintosh; Intel Mac OS X 10_15_7) AppleWebKit/537.36 (KHTML, like Gecko) Chrome/91.0.4472.114 Safari/537.36" etag="RUuYe5VQhE5FOUw4wyQm" version="15.7.0" type="github">
  <diagram id="YZnyMSXSnCEE_CymccfS" name="Page-1">
    <mxGraphModel dx="1113" dy="655" grid="1" gridSize="10" guides="1" tooltips="1" connect="1" arrows="1" fold="1" page="1" pageScale="1" pageWidth="1654" pageHeight="2336" math="0" shadow="0">
      <root>
        <mxCell id="0" />
        <mxCell id="1" parent="0" />
        <mxCell id="g8iUTo1PRh5J7QxqeXhu-16" style="edgeStyle=orthogonalEdgeStyle;rounded=0;orthogonalLoop=1;jettySize=auto;html=1;exitX=0.5;exitY=1;exitDx=0;exitDy=0;entryX=0.5;entryY=0;entryDx=0;entryDy=0;" edge="1" parent="1" source="g8iUTo1PRh5J7QxqeXhu-1" target="g8iUTo1PRh5J7QxqeXhu-2">
          <mxGeometry relative="1" as="geometry">
            <Array as="points">
              <mxPoint x="270" y="120" />
              <mxPoint x="70" y="120" />
            </Array>
          </mxGeometry>
        </mxCell>
        <mxCell id="g8iUTo1PRh5J7QxqeXhu-20" style="edgeStyle=orthogonalEdgeStyle;rounded=0;orthogonalLoop=1;jettySize=auto;html=1;exitX=0.5;exitY=1;exitDx=0;exitDy=0;entryX=0.5;entryY=0;entryDx=0;entryDy=0;" edge="1" parent="1" source="g8iUTo1PRh5J7QxqeXhu-1" target="g8iUTo1PRh5J7QxqeXhu-3">
          <mxGeometry relative="1" as="geometry">
            <Array as="points">
              <mxPoint x="270" y="120" />
              <mxPoint x="175" y="120" />
            </Array>
          </mxGeometry>
        </mxCell>
        <mxCell id="g8iUTo1PRh5J7QxqeXhu-21" style="edgeStyle=orthogonalEdgeStyle;rounded=0;orthogonalLoop=1;jettySize=auto;html=1;exitX=0.5;exitY=1;exitDx=0;exitDy=0;entryX=0.5;entryY=0;entryDx=0;entryDy=0;" edge="1" parent="1" source="g8iUTo1PRh5J7QxqeXhu-1" target="g8iUTo1PRh5J7QxqeXhu-4">
          <mxGeometry relative="1" as="geometry">
            <Array as="points">
              <mxPoint x="270" y="100" />
              <mxPoint x="270" y="100" />
            </Array>
          </mxGeometry>
        </mxCell>
        <mxCell id="g8iUTo1PRh5J7QxqeXhu-23" style="edgeStyle=orthogonalEdgeStyle;rounded=0;orthogonalLoop=1;jettySize=auto;html=1;exitX=0.5;exitY=1;exitDx=0;exitDy=0;entryX=0.5;entryY=0;entryDx=0;entryDy=0;" edge="1" parent="1" source="g8iUTo1PRh5J7QxqeXhu-1" target="g8iUTo1PRh5J7QxqeXhu-5">
          <mxGeometry relative="1" as="geometry">
            <Array as="points">
              <mxPoint x="270" y="120" />
              <mxPoint x="360" y="120" />
            </Array>
          </mxGeometry>
        </mxCell>
        <mxCell id="g8iUTo1PRh5J7QxqeXhu-26" style="edgeStyle=orthogonalEdgeStyle;rounded=0;orthogonalLoop=1;jettySize=auto;html=1;exitX=0.5;exitY=1;exitDx=0;exitDy=0;entryX=0.5;entryY=0;entryDx=0;entryDy=0;" edge="1" parent="1" source="g8iUTo1PRh5J7QxqeXhu-1" target="g8iUTo1PRh5J7QxqeXhu-6">
          <mxGeometry relative="1" as="geometry">
            <Array as="points">
              <mxPoint x="270" y="120" />
              <mxPoint x="460" y="120" />
            </Array>
          </mxGeometry>
        </mxCell>
        <mxCell id="g8iUTo1PRh5J7QxqeXhu-60" style="edgeStyle=orthogonalEdgeStyle;rounded=0;orthogonalLoop=1;jettySize=auto;html=1;entryX=0.402;entryY=-0.002;entryDx=0;entryDy=0;entryPerimeter=0;" edge="1" parent="1" source="g8iUTo1PRh5J7QxqeXhu-1" target="g8iUTo1PRh5J7QxqeXhu-57">
          <mxGeometry relative="1" as="geometry">
            <mxPoint x="410" y="299" as="targetPoint" />
            <Array as="points">
              <mxPoint x="410" y="70" />
              <mxPoint x="410" y="300" />
            </Array>
          </mxGeometry>
        </mxCell>
        <mxCell id="g8iUTo1PRh5J7QxqeXhu-1" value="图片" style="rounded=1;whiteSpace=wrap;html=1;" vertex="1" parent="1">
          <mxGeometry x="235" y="50" width="70" height="40" as="geometry" />
        </mxCell>
        <mxCell id="g8iUTo1PRh5J7QxqeXhu-37" style="edgeStyle=orthogonalEdgeStyle;rounded=0;orthogonalLoop=1;jettySize=auto;html=1;exitX=0.5;exitY=1;exitDx=0;exitDy=0;entryX=0.5;entryY=0;entryDx=0;entryDy=0;" edge="1" parent="1" source="g8iUTo1PRh5J7QxqeXhu-2" target="g8iUTo1PRh5J7QxqeXhu-35">
          <mxGeometry relative="1" as="geometry" />
        </mxCell>
        <mxCell id="g8iUTo1PRh5J7QxqeXhu-2" value="&lt;b&gt;低质判断特征&lt;br&gt;&lt;/b&gt;：二维码、色情等" style="rounded=0;whiteSpace=wrap;html=1;" vertex="1" parent="1">
          <mxGeometry x="30" y="140" width="80" height="40" as="geometry" />
        </mxCell>
        <mxCell id="g8iUTo1PRh5J7QxqeXhu-53" value="" style="edgeStyle=orthogonalEdgeStyle;rounded=0;orthogonalLoop=1;jettySize=auto;html=1;" edge="1" parent="1" source="g8iUTo1PRh5J7QxqeXhu-3" target="g8iUTo1PRh5J7QxqeXhu-44">
          <mxGeometry relative="1" as="geometry" />
        </mxCell>
        <mxCell id="g8iUTo1PRh5J7QxqeXhu-3" value="图片信息和感知特征：&lt;br&gt;信息熵美观度" style="rounded=0;whiteSpace=wrap;html=1;" vertex="1" parent="1">
          <mxGeometry x="130" y="140" width="90" height="40" as="geometry" />
        </mxCell>
        <mxCell id="g8iUTo1PRh5J7QxqeXhu-54" value="" style="edgeStyle=orthogonalEdgeStyle;rounded=0;orthogonalLoop=1;jettySize=auto;html=1;" edge="1" parent="1" source="g8iUTo1PRh5J7QxqeXhu-4" target="g8iUTo1PRh5J7QxqeXhu-45">
          <mxGeometry relative="1" as="geometry" />
        </mxCell>
        <mxCell id="g8iUTo1PRh5J7QxqeXhu-4" value="人脸信息" style="rounded=0;whiteSpace=wrap;html=1;" vertex="1" parent="1">
          <mxGeometry x="230" y="140" width="80" height="40" as="geometry" />
        </mxCell>
        <mxCell id="g8iUTo1PRh5J7QxqeXhu-68" style="edgeStyle=orthogonalEdgeStyle;rounded=0;orthogonalLoop=1;jettySize=auto;html=1;entryX=0.398;entryY=0.004;entryDx=0;entryDy=0;entryPerimeter=0;" edge="1" parent="1" source="g8iUTo1PRh5J7QxqeXhu-5" target="g8iUTo1PRh5J7QxqeXhu-57">
          <mxGeometry relative="1" as="geometry">
            <Array as="points">
              <mxPoint x="360" y="240" />
              <mxPoint x="410" y="240" />
              <mxPoint x="410" y="300" />
            </Array>
          </mxGeometry>
        </mxCell>
        <mxCell id="g8iUTo1PRh5J7QxqeXhu-5" value="图片ocr" style="rounded=0;whiteSpace=wrap;html=1;" vertex="1" parent="1">
          <mxGeometry x="320" y="140" width="80" height="40" as="geometry" />
        </mxCell>
        <mxCell id="g8iUTo1PRh5J7QxqeXhu-63" style="edgeStyle=orthogonalEdgeStyle;rounded=0;orthogonalLoop=1;jettySize=auto;html=1;entryX=0.396;entryY=-0.012;entryDx=0;entryDy=0;entryPerimeter=0;" edge="1" parent="1" source="g8iUTo1PRh5J7QxqeXhu-6" target="g8iUTo1PRh5J7QxqeXhu-57">
          <mxGeometry relative="1" as="geometry">
            <Array as="points">
              <mxPoint x="460" y="240" />
              <mxPoint x="410" y="240" />
              <mxPoint x="410" y="300" />
              <mxPoint x="409" y="300" />
            </Array>
          </mxGeometry>
        </mxCell>
        <mxCell id="g8iUTo1PRh5J7QxqeXhu-6" value="协同语义" style="rounded=0;whiteSpace=wrap;html=1;" vertex="1" parent="1">
          <mxGeometry x="420" y="140" width="80" height="40" as="geometry" />
        </mxCell>
        <mxCell id="g8iUTo1PRh5J7QxqeXhu-28" value="" style="edgeStyle=orthogonalEdgeStyle;rounded=0;orthogonalLoop=1;jettySize=auto;html=1;" edge="1" parent="1" source="g8iUTo1PRh5J7QxqeXhu-10" target="g8iUTo1PRh5J7QxqeXhu-13">
          <mxGeometry relative="1" as="geometry" />
        </mxCell>
        <mxCell id="g8iUTo1PRh5J7QxqeXhu-32" style="edgeStyle=orthogonalEdgeStyle;rounded=0;orthogonalLoop=1;jettySize=auto;html=1;exitX=0.25;exitY=1;exitDx=0;exitDy=0;entryX=0.5;entryY=0;entryDx=0;entryDy=0;" edge="1" parent="1" source="g8iUTo1PRh5J7QxqeXhu-10" target="g8iUTo1PRh5J7QxqeXhu-11">
          <mxGeometry relative="1" as="geometry">
            <Array as="points">
              <mxPoint x="695" y="90" />
              <mxPoint x="695" y="115" />
              <mxPoint x="595" y="115" />
            </Array>
          </mxGeometry>
        </mxCell>
        <mxCell id="g8iUTo1PRh5J7QxqeXhu-33" style="edgeStyle=orthogonalEdgeStyle;rounded=0;orthogonalLoop=1;jettySize=auto;html=1;exitX=0.75;exitY=1;exitDx=0;exitDy=0;entryX=0.5;entryY=0;entryDx=0;entryDy=0;" edge="1" parent="1" source="g8iUTo1PRh5J7QxqeXhu-10" target="g8iUTo1PRh5J7QxqeXhu-14">
          <mxGeometry relative="1" as="geometry">
            <Array as="points">
              <mxPoint x="695" y="90" />
              <mxPoint x="695" y="115" />
              <mxPoint x="815" y="115" />
            </Array>
          </mxGeometry>
        </mxCell>
        <mxCell id="g8iUTo1PRh5J7QxqeXhu-10" value="文本" style="rounded=1;whiteSpace=wrap;html=1;" vertex="1" parent="1">
          <mxGeometry x="660" y="50" width="70" height="40" as="geometry" />
        </mxCell>
        <mxCell id="g8iUTo1PRh5J7QxqeXhu-11" value="标题term" style="rounded=0;whiteSpace=wrap;html=1;" vertex="1" parent="1">
          <mxGeometry x="560" y="140" width="70" height="40" as="geometry" />
        </mxCell>
        <mxCell id="g8iUTo1PRh5J7QxqeXhu-47" style="edgeStyle=orthogonalEdgeStyle;rounded=0;orthogonalLoop=1;jettySize=auto;html=1;exitX=0.5;exitY=1;exitDx=0;exitDy=0;" edge="1" parent="1" source="g8iUTo1PRh5J7QxqeXhu-13" target="g8iUTo1PRh5J7QxqeXhu-46">
          <mxGeometry relative="1" as="geometry" />
        </mxCell>
        <mxCell id="g8iUTo1PRh5J7QxqeXhu-13" value="标题分词关键词" style="rounded=0;whiteSpace=wrap;html=1;" vertex="1" parent="1">
          <mxGeometry x="650" y="140" width="90" height="40" as="geometry" />
        </mxCell>
        <mxCell id="g8iUTo1PRh5J7QxqeXhu-52" value="" style="edgeStyle=orthogonalEdgeStyle;rounded=0;orthogonalLoop=1;jettySize=auto;html=1;" edge="1" parent="1" source="g8iUTo1PRh5J7QxqeXhu-14" target="g8iUTo1PRh5J7QxqeXhu-46">
          <mxGeometry relative="1" as="geometry" />
        </mxCell>
        <mxCell id="g8iUTo1PRh5J7QxqeXhu-14" value="正文：news attention" style="rounded=0;whiteSpace=wrap;html=1;" vertex="1" parent="1">
          <mxGeometry x="770" y="140" width="90" height="40" as="geometry" />
        </mxCell>
        <mxCell id="g8iUTo1PRh5J7QxqeXhu-38" style="edgeStyle=orthogonalEdgeStyle;rounded=0;orthogonalLoop=1;jettySize=auto;html=1;exitX=0.5;exitY=1;exitDx=0;exitDy=0;entryX=0.5;entryY=0;entryDx=0;entryDy=0;" edge="1" parent="1" source="g8iUTo1PRh5J7QxqeXhu-35" target="g8iUTo1PRh5J7QxqeXhu-36">
          <mxGeometry relative="1" as="geometry" />
        </mxCell>
        <mxCell id="g8iUTo1PRh5J7QxqeXhu-35" value="&lt;b&gt;低质打压&lt;/b&gt;&lt;span style=&quot;color: rgba(0 , 0 , 0 , 0) ; font-family: monospace ; font-size: 0px&quot;&gt;%3CmxGraphModel%3E%3Croot%3E%3CmxCell%20id%3D%220%22%2F%3E%3CmxCell%20id%3D%221%22%20parent%3D%220%22%2F%3E%3CmxCell%20id%3D%222%22%20value%3D%22%26lt%3Bb%26gt%3B%E4%BD%8E%E8%B4%A8%E5%88%A4%E6%96%AD%E7%89%B9%E5%BE%81%26lt%3Bbr%26gt%3B%26lt%3B%2Fb%26gt%3B%EF%BC%9A%E4%BA%8C%E7%BB%B4%E7%A0%81%E3%80%81%E8%89%B2%E6%83%85%E7%AD%89%22%20style%3D%22rounded%3D0%3BwhiteSpace%3Dwrap%3Bhtml%3D1%3B%22%20vertex%3D%221%22%20parent%3D%221%22%3E%3CmxGeometry%20x%3D%2230%22%20y%3D%22140%22%20width%3D%2280%22%20height%3D%2240%22%20as%3D%22geometry%22%2F%3E%3C%2FmxCell%3E%3C%2Froot%3E%3C%2FmxGraphModel%3E&lt;/span&gt;" style="rounded=0;whiteSpace=wrap;html=1;" vertex="1" parent="1">
          <mxGeometry x="30" y="230" width="80" height="40" as="geometry" />
        </mxCell>
        <mxCell id="g8iUTo1PRh5J7QxqeXhu-36" value="剩余图片" style="rounded=1;whiteSpace=wrap;html=1;" vertex="1" parent="1">
          <mxGeometry x="35" y="300" width="70" height="40" as="geometry" />
        </mxCell>
        <mxCell id="g8iUTo1PRh5J7QxqeXhu-42" value="剩余图片得到一个score=f(score1, score2, score3)" style="rounded=1;whiteSpace=wrap;html=1;" vertex="1" parent="1">
          <mxGeometry x="110" y="410" width="180" height="60" as="geometry" />
        </mxCell>
        <mxCell id="g8iUTo1PRh5J7QxqeXhu-64" style="edgeStyle=orthogonalEdgeStyle;rounded=0;orthogonalLoop=1;jettySize=auto;html=1;exitX=0.5;exitY=1;exitDx=0;exitDy=0;" edge="1" parent="1" source="g8iUTo1PRh5J7QxqeXhu-44">
          <mxGeometry relative="1" as="geometry">
            <mxPoint x="200" y="410" as="targetPoint" />
            <Array as="points">
              <mxPoint x="175" y="340" />
              <mxPoint x="200" y="340" />
              <mxPoint x="200" y="380" />
            </Array>
          </mxGeometry>
        </mxCell>
        <mxCell id="g8iUTo1PRh5J7QxqeXhu-44" value="满足条件加分得到score1" style="rounded=1;whiteSpace=wrap;html=1;" vertex="1" parent="1">
          <mxGeometry x="135" y="230" width="80" height="40" as="geometry" />
        </mxCell>
        <mxCell id="g8iUTo1PRh5J7QxqeXhu-65" style="edgeStyle=orthogonalEdgeStyle;rounded=0;orthogonalLoop=1;jettySize=auto;html=1;entryX=0.5;entryY=0;entryDx=0;entryDy=0;" edge="1" parent="1" source="g8iUTo1PRh5J7QxqeXhu-45" target="g8iUTo1PRh5J7QxqeXhu-42">
          <mxGeometry relative="1" as="geometry">
            <Array as="points">
              <mxPoint x="270" y="340" />
              <mxPoint x="200" y="340" />
            </Array>
          </mxGeometry>
        </mxCell>
        <mxCell id="g8iUTo1PRh5J7QxqeXhu-45" value="满足条件加分得到score2" style="rounded=1;whiteSpace=wrap;html=1;" vertex="1" parent="1">
          <mxGeometry x="230" y="230" width="80" height="40" as="geometry" />
        </mxCell>
        <mxCell id="g8iUTo1PRh5J7QxqeXhu-55" style="edgeStyle=orthogonalEdgeStyle;rounded=0;orthogonalLoop=1;jettySize=auto;html=1;" edge="1" parent="1" source="g8iUTo1PRh5J7QxqeXhu-46">
          <mxGeometry relative="1" as="geometry">
            <mxPoint x="310" y="250" as="targetPoint" />
            <Array as="points">
              <mxPoint x="310" y="250" />
            </Array>
          </mxGeometry>
        </mxCell>
        <mxCell id="g8iUTo1PRh5J7QxqeXhu-46" value="merge得到新的关键词：new_results" style="rounded=0;whiteSpace=wrap;html=1;" vertex="1" parent="1">
          <mxGeometry x="677" y="230" width="150" height="40" as="geometry" />
        </mxCell>
        <mxCell id="g8iUTo1PRh5J7QxqeXhu-66" style="edgeStyle=orthogonalEdgeStyle;rounded=0;orthogonalLoop=1;jettySize=auto;html=1;entryX=0.5;entryY=0;entryDx=0;entryDy=0;" edge="1" parent="1" source="g8iUTo1PRh5J7QxqeXhu-57" target="g8iUTo1PRh5J7QxqeXhu-42">
          <mxGeometry relative="1" as="geometry">
            <Array as="points">
              <mxPoint x="200" y="340" />
            </Array>
          </mxGeometry>
        </mxCell>
        <mxCell id="g8iUTo1PRh5J7QxqeXhu-57" value="相关性模块得到score3" style="rounded=1;whiteSpace=wrap;html=1;" vertex="1" parent="1">
          <mxGeometry x="350" y="300" width="150" height="80" as="geometry" />
        </mxCell>
      </root>
    </mxGraphModel>
  </diagram>
</mxfile>
